<?xml version="1.0" encoding="utf-8"?>
<!-- Generator: Adobe Illustrator 22.0.1, SVG Export Plug-In . SVG Version: 6.00 Build 0)  -->
<svg version="1.1" xmlns="http://www.w3.org/2000/svg" xmlns:xlink="http://www.w3.org/1999/xlink" x="0px" y="0px"
	 viewBox="0 0 110 45.3" style="enable-background:new 0 0 110 45.3;" xml:space="preserve">
<style type="text/css">
	.st0{fill:#162948;}
	.st1{fill:#FF6B08;}
	.st2{fill:#5793CF;}
</style>
<g id="Слой_1">
	<g>
		<path class="st0" d="M5.4,29.1c0-1.2,0.1-2.3,0.4-3.4c0.3-1.1,0.7-2.2,1.2-3.2s1.1-1.9,1.8-2.8c0.7-0.8,1.4-1.6,2.3-2.2
			c0.8-0.6,1.7-1.1,2.6-1.4c0.9-0.3,1.9-0.5,2.9-0.5c1.1,0,2,0.2,2.7,0.7c0.6,0.5,1,1.2,1,2c0,0.3,0,0.7-0.1,1
			c-0.1,0.3-0.2,0.7-0.4,1c-0.2,0.3-0.4,0.7-0.6,1c-0.2,0.3-0.5,0.6-0.8,0.8c-0.4-0.1-0.8-0.3-1.1-0.6c-0.3-0.3-0.5-0.7-0.6-1.1
			c0.6-0.5,1-1,1.4-1.5c0.3-0.5,0.5-1,0.5-1.4c0-0.7-0.5-1.1-1.4-1.1c-0.4,0-0.8,0.1-1.2,0.2c-0.4,0.2-0.8,0.4-1.2,0.7
			c-0.4,0.3-0.8,0.6-1.2,1c-0.4,0.4-0.8,0.8-1.1,1.3c-2.3,3.3-3.5,6.7-3.5,10.2c0,1.2,0.2,2.2,0.6,3c0.4,0.8,0.9,1.2,1.5,1.3
			c0.7-0.2,1.6-0.6,2.7-1.4c1.1-0.7,2.3-1.7,3.6-2.9c0.2,0.2,0.3,0.3,0.3,0.5c-0.5,0.6-1,1.2-1.5,1.8c-0.5,0.6-1,1.1-1.5,1.6
			s-1,0.9-1.5,1.3c-0.5,0.4-0.9,0.6-1.4,0.8c-2.1,0-3.6-0.6-4.7-1.7C5.9,33,5.4,31.3,5.4,29.1z"/>
		<path class="st0" d="M20.6,33.5c0-0.6,0.1-1.3,0.2-2.1c0.1-0.8,0.3-1.6,0.5-2.5s0.5-1.8,0.8-2.8c0.3-1,0.7-2,1-2.9
			c0.3-0.9,0.7-1.8,1.2-2.7c0.4-0.9,0.9-1.8,1.4-2.6c0.5-0.9,1.1-1.7,1.6-2.5c0.6-0.8,1.1-1.5,1.7-2.1c0.3,0,0.6,0,0.9,0.1
			c0.3,0.1,0.6,0.2,0.9,0.3c0.3,0.1,0.6,0.2,0.8,0.4c0.2,0.1,0.4,0.3,0.6,0.5c-1.3,1.3-2.4,2.6-3.4,3.9c-1,1.3-1.8,2.5-2.4,3.7
			c-0.3,0.6-0.6,1.2-0.9,1.8c-0.3,0.6-0.5,1.1-0.7,1.6c-0.2,0.5-0.4,1.1-0.6,1.6c-0.2,0.5-0.3,1.1-0.5,1.7c3.2-4.1,5.6-6.1,7.1-6.1
			c0.4,0,0.9,0.1,1.4,0.4s0.9,0.7,1.3,1.1c-0.5,0.6-1,1.3-1.6,2c-0.6,0.8-1.1,1.6-1.5,2.4c-0.5,0.8-0.8,1.6-1.1,2.3
			c-0.3,0.7-0.4,1.2-0.4,1.5c0,0.2,0,0.3,0.1,0.3c0,0.1,0.2,0.1,0.3,0.1c0.3,0,0.5,0,0.6-0.1c0.1-0.1,0.2-0.1,0.3-0.1
			c0.1,0.1,0.1,0.2,0.1,0.3c0,0,0,0.1,0,0.1c0,0.1-0.1,0.2-0.3,0.3c-0.2,0.1-0.4,0.3-0.7,0.4s-0.5,0.2-0.8,0.3s-0.5,0.1-0.6,0.1
			c-0.2,0-0.3,0-0.5-0.1s-0.3-0.2-0.4-0.4s-0.2-0.3-0.3-0.5c-0.1-0.2-0.1-0.4-0.1-0.6c0-0.3,0.1-0.6,0.2-1.1
			c0.1-0.5,0.3-1.1,0.6-1.7c0.3-0.7,0.5-1.4,0.9-2.2c0.4-0.8,0.7-1.6,1.1-2.4c0-0.1,0-0.1-0.1-0.1c0,0-0.2,0.1-0.4,0.2
			c-0.2,0.1-0.4,0.3-0.6,0.4c-0.6,0.5-1.2,1-1.8,1.7c-0.6,0.7-1.2,1.4-1.8,2.2c-0.6,0.8-1.1,1.6-1.6,2.5c-0.5,0.9-0.9,1.8-1.3,2.6
			c0,0.1-0.1,0.2-0.2,0.3c-0.1,0.1-0.2,0.2-0.3,0.2c0,0-0.1-0.1-0.2-0.2c-0.1-0.1-0.2-0.3-0.3-0.4c-0.1-0.2-0.1-0.4-0.2-0.5
			C20.6,33.8,20.6,33.7,20.6,33.5z"/>
		<path class="st0" d="M43.7,23.6c-0.1,1-0.3,1.9-0.5,2.7c-0.3,0.7-0.7,1.4-1.3,2c-0.6,0.6-1.2,1.1-2,1.5C39,30.2,38.1,30.6,37,31
			c0,0.1,0,0.2,0,0.3c0,0.1,0,0.2,0,0.3c0,0.2,0,0.4,0.1,0.7c0,0.2,0.1,0.5,0.2,0.6c0.1,0.2,0.2,0.4,0.4,0.5s0.3,0.2,0.6,0.2
			c0.4,0,0.9-0.1,1.3-0.3c0.4-0.2,0.8-0.4,1.2-0.7c0.4-0.3,0.8-0.6,1.1-1c0.3-0.3,0.6-0.7,0.9-0.9c0.2,0.2,0.3,0.3,0.4,0.4
			c-0.8,1-1.6,1.8-2.5,2.5s-1.7,1.1-2.5,1.3c-1.2-0.1-2-0.6-2.7-1.3c-0.6-0.7-1-1.6-1-2.6c0-0.7,0.1-1.4,0.3-2.1
			c0.2-0.7,0.5-1.4,0.8-2c0.3-0.7,0.7-1.3,1.2-1.9c0.5-0.6,1-1.1,1.5-1.5c0.5-0.4,1.1-0.8,1.6-1c0.6-0.3,1.1-0.4,1.7-0.4
			C42.3,22.3,43,22.7,43.7,23.6z M42,24.4c-0.4,0.1-0.9,0.3-1.4,0.5c-0.5,0.3-0.9,0.7-1.4,1.2c-0.4,0.5-0.8,1.1-1.2,1.8
			s-0.6,1.4-0.8,2.1c1.3-0.7,2.4-1.5,3.3-2.5C41.4,26.6,41.9,25.6,42,24.4z"/>
		<path class="st0" d="M46.3,29.5c0-1,0.2-1.9,0.6-2.8c0.4-0.9,0.9-1.7,1.5-2.4c0.6-0.7,1.4-1.3,2.2-1.7c0.8-0.4,1.7-0.6,2.6-0.6
			c0.9,0,1.5,0.2,2,0.6c0.5,0.4,0.7,1.1,0.7,1.9c0,0.4-0.1,0.8-0.2,1.1c-0.1,0.4-0.3,0.7-0.4,1c-0.2,0.3-0.4,0.5-0.6,0.7
			c-0.2,0.2-0.5,0.3-0.7,0.3c-0.2,0-0.4-0.1-0.6-0.2c-0.2-0.1-0.4-0.3-0.5-0.5c1.1-1,1.7-1.9,1.7-2.8c0-0.5-0.2-0.7-0.6-0.7
			c-0.3,0-0.8,0.2-1.3,0.5c-0.5,0.3-1,0.7-1.5,1.3c-0.7,0.8-1.3,1.7-1.6,2.7c-0.4,1-0.6,2-0.6,3.1c0,1.3,0.3,2.2,0.9,2.4
			c0.3,0,0.5-0.1,0.9-0.2c0.3-0.1,0.7-0.3,1.1-0.5c0.4-0.2,0.8-0.4,1.2-0.7c0.4-0.3,0.8-0.5,1.2-0.8c0.1,0,0.1,0.1,0.2,0.2
			c0,0.1,0.1,0.2,0.1,0.3c-0.3,0.4-0.6,0.7-1,1c-0.4,0.3-0.8,0.6-1.1,0.9c-0.4,0.3-0.8,0.5-1.2,0.7s-0.7,0.3-1,0.4
			c-0.5-0.1-1.1-0.2-1.5-0.5s-0.9-0.7-1.3-1.1s-0.6-1-0.8-1.6C46.4,30.8,46.3,30.2,46.3,29.5z"/>
		<path class="st0" d="M57.9,31.6c0-0.6,0.2-1.4,0.5-2.5c0.3-1.1,0.7-2.2,1.2-3.5c0.5-1.3,1.1-2.6,1.7-3.9c0.6-1.4,1.3-2.6,1.9-3.8
			c0.6-1.2,1.3-2.2,1.8-3c0.6-0.9,1.1-1.4,1.5-1.7c0.2,0,0.5,0.1,0.8,0.3c0.3,0.2,0.5,0.4,0.8,0.7c0.2,0.3,0.4,0.5,0.6,0.8
			c0.2,0.3,0.2,0.5,0.2,0.8c-0.8,0.6-1.5,1.4-2.3,2.3c-0.8,0.9-1.5,2-2.2,3.1c-0.7,1.1-1.3,2.3-1.9,3.6c-0.6,1.3-1.1,2.5-1.5,3.7
			c0.5-0.9,1.1-1.8,1.7-2.5c0.6-0.8,1.2-1.4,1.8-1.9c0.6-0.5,1.2-0.9,1.7-1.2c0.6-0.3,1.1-0.4,1.6-0.4c0.7,0.5,1.1,1.2,1.1,2.1
			c0,0.5-0.1,1.1-0.3,1.6s-0.5,1-0.9,1.5s-0.8,0.8-1.2,1.2c-0.5,0.3-0.9,0.5-1.4,0.6c0.2,0.6,0.4,1.2,0.6,1.8
			c0.3,0.6,0.6,1.2,0.9,1.7c0.4,0.6,0.8,1.1,1.2,1.6c0.5,0.5,1,0.9,1.6,1.2c-0.1,0.2-0.2,0.3-0.4,0.5c-0.2,0.2-0.4,0.3-0.6,0.4
			s-0.5,0.2-0.8,0.3C67.3,36.9,67,37,66.8,37c-0.5,0-0.9-0.2-1.3-0.7c-0.4-0.4-0.7-1.1-1.1-1.9c-0.3-0.7-0.5-1.5-0.7-2.5
			c-0.2-1-0.4-1.9-0.6-3c0.2-0.1,0.5-0.4,0.9-0.7s0.7-0.6,1.1-1c1.5-1.4,2.2-2.6,2.2-3.7c0-0.1-0.1-0.2-0.3-0.2
			c-0.3,0-0.7,0.2-1.2,0.5s-0.9,0.7-1.4,1.3c-0.5,0.5-1,1.2-1.5,1.9c-0.5,0.7-1,1.5-1.5,2.3c-0.2,0.3-0.4,0.7-0.5,1.2
			c-0.2,0.4-0.3,0.9-0.4,1.3c-0.1,0.5-0.2,0.9-0.3,1.4c-0.1,0.5-0.1,0.9-0.1,1.3c0,0.2,0,0.4,0.1,0.6c-0.5-0.1-0.8-0.2-1-0.4
			c-0.1-0.2-0.2-0.4-0.3-0.5c-0.1-0.1-0.2-0.2-0.3-0.3c-0.1-0.1-0.3-0.4-0.4-0.8C58,32.6,57.9,32.1,57.9,31.6z"/>
		<path class="st0" d="M76.4,24c-0.5-0.3-0.8-0.4-1.1-0.5c-0.4,0.2-0.7,0.5-1,0.8c-0.3,0.4-0.5,0.8-0.7,1.2
			c-0.2,0.4-0.3,0.8-0.5,1.2c-0.1,0.4-0.2,0.6-0.2,0.8c-0.2,0.8-0.3,1.4-0.4,1.9c-0.1,0.5-0.2,1-0.3,1.4c-0.1,0.4-0.1,0.7-0.1,0.9
			c0,0.2,0,0.4,0,0.6c0,0.4,0.1,0.7,0.3,0.9c0.2,0.3,0.4,0.5,0.6,0.7c0.2,0.2,0.4,0.3,0.6,0.4c0.2,0.1,0.3,0.1,0.4,0.1
			c0.1,0,0.1-0.1,0.1-0.2c0-0.1,0-0.3,0-0.6c0-0.4,0.1-0.8,0.3-1.3c0.2-0.5,0.3-1,0.5-1.4c0.2-0.5,0.4-1.1,0.6-1.6
			c0.2-0.5,0.4-1,0.6-1.5c0.2-0.5,0.4-0.9,0.7-1.4c0.3-0.4,0.6-0.9,1-1.3C77.3,24.7,76.9,24.3,76.4,24z"/>
		<path class="st0" d="M83.2,21.8c0.4,0.1,0.8,0.4,1.2,0.9c0.4,0.5,0.7,1,0.8,1.5c-0.2,0.5-0.5,1-0.8,1.6c-0.4,0.6-0.8,1.3-1.2,1.9
			c-0.4,0.7-0.7,1.3-1,1.9c-0.3,0.6-0.5,1.1-0.5,1.5c0.3-0.3,0.6-0.6,0.9-1c0.3-0.4,0.6-0.8,1-1.1c0.3-0.4,0.6-0.7,0.9-1
			c0.3-0.3,0.5-0.5,0.6-0.7c0.3-0.3,0.7-0.7,1.1-1.2c0.4-0.4,0.9-0.9,1.4-1.3s1-0.7,1.4-1c0.5-0.3,0.9-0.4,1.3-0.4
			c0.4,0,0.8,0.1,1.1,0.4c0.3,0.3,0.5,0.6,0.7,0.9c0,0-0.1,0.1-0.2,0.1s-0.3,0.2-0.5,0.5c-0.2,0.3-0.5,0.7-0.8,1.2
			c-0.3,0.5-0.6,1.1-0.9,1.7s-0.5,1.2-0.7,1.9c-0.2,0.6-0.3,1.2-0.3,1.7c0,0.4,0.1,0.7,0.2,0.8c0.1,0.1,0.3,0.2,0.5,0.2
			c0.2,0,0.4,0,0.6-0.1c0.2-0.1,0.4-0.1,0.5-0.1c0.1,0,0.1,0.1,0.2,0.2c0,0.1,0.1,0.2,0.1,0.3c-0.1,0.1-0.3,0.2-0.5,0.4
			s-0.4,0.2-0.6,0.3c-0.2,0.1-0.4,0.2-0.6,0.3c-0.2,0.1-0.4,0.1-0.5,0.1c-0.5,0-0.9-0.1-1.2-0.2c-0.3-0.1-0.5-0.3-0.7-0.6
			c-0.2-0.2-0.3-0.5-0.4-0.8c-0.1-0.3-0.1-0.7-0.1-1c0-0.2,0-0.4,0-0.7s0.1-0.5,0.2-0.9c0.1-0.3,0.2-0.8,0.4-1.2s0.4-1,0.7-1.7
			c0,0-0.3,0.1-0.7,0.4c-0.4,0.2-0.9,0.6-1.4,1.1c-0.8,0.8-1.5,1.5-2.1,2.2c-0.6,0.7-1.3,1.6-1.9,2.5c-0.4,0.5-0.7,1-1,1.3
			c-0.3,0.4-0.5,0.6-0.7,0.7c-0.4-0.2-0.6-0.5-0.8-0.8c-0.2-0.4-0.3-0.7-0.4-1.1c0-0.3,0-0.7,0.1-1.2c0.1-0.5,0.2-1,0.4-1.6
			c0.2-0.6,0.4-1.2,0.6-1.9c0.2-0.6,0.5-1.3,0.8-2c0.6-1.5,1.2-2.6,1.7-3.4C82.8,22.3,83.1,21.9,83.2,21.8z"/>
		<path class="st0" d="M88.9,41.4c0-0.1,0-0.2,0.1-0.3c0.1-0.1,0.1-0.2,0.2-0.3c0.2,0.2,0.4,0.3,0.5,0.4c0.1,0.1,0.3,0.2,0.4,0.3
			c0.1,0.1,0.3,0.1,0.4,0.1c0.1,0,0.3,0,0.5,0c0.9,0,1.7-0.2,2.5-0.7c0.8-0.5,1.5-1.1,2.2-2c0.7-0.9,1.3-1.9,1.9-3.2
			s1.1-2.7,1.5-4.2c-0.2,0.2-0.4,0.4-0.7,0.7c-0.3,0.2-0.6,0.5-0.9,0.7c-0.3,0.2-0.6,0.4-0.9,0.6c-0.3,0.2-0.6,0.3-0.8,0.4
			c-0.3,0-0.5-0.2-0.8-0.4c-0.2-0.2-0.5-0.4-0.6-0.7c-0.2-0.3-0.3-0.6-0.4-1c-0.1-0.4-0.2-0.7-0.2-1.1c0-0.7,0.1-1.3,0.4-2
			c0.2-0.7,0.6-1.4,1-2c0.4-0.7,0.9-1.3,1.4-1.9c0.5-0.6,1.1-1.1,1.7-1.5c0.6-0.4,1.2-0.8,1.8-1s1.2-0.4,1.8-0.4
			c0.6,0,1,0.1,1.3,0.4c0.3,0.2,0.5,0.7,0.6,1.2c-0.2-0.1-0.4-0.1-0.7-0.1c-0.4,0-0.9,0.2-1.4,0.5c-0.5,0.3-1.1,0.7-1.6,1.2
			s-1.1,1.1-1.6,1.8c-0.5,0.7-1,1.3-1.4,2c-0.4,0.7-0.7,1.4-1,2c-0.3,0.7-0.4,1.2-0.4,1.7c0,0.1,0,0.2,0,0.2c0,0,0,0,0.1,0
			c0.1,0,0.4-0.1,0.6-0.3c0.3-0.2,0.5-0.4,0.9-0.6c0.3-0.3,0.7-0.6,1-0.9s0.7-0.7,1-1c0.7-0.8,1.4-1.7,2-2.7s1.1-2,1.4-2.9
			c0.5,0,0.9,0.1,1.2,0.2c0.4,0.1,0.6,0.2,0.7,0.4c-0.6,1.3-1,2.4-1.4,3.3c-0.3,0.9-0.6,1.7-0.9,2.4c-0.5,1.2-0.9,2.3-1.3,3.3
			c-0.4,1-0.8,1.9-1.2,2.8c-0.4,0.8-0.8,1.6-1.3,2.4c-0.5,0.7-1,1.4-1.6,2.1c-0.3,0.3-0.6,0.6-1,0.8c-0.4,0.2-0.7,0.4-1.1,0.6
			s-0.7,0.3-1.1,0.4c-0.4,0.1-0.7,0.1-1,0.1c-0.4,0-0.8,0-1.2-0.1c-0.4-0.1-0.8-0.2-1.2-0.4c-0.4-0.2-0.7-0.3-0.9-0.6
			S89,41.6,88.9,41.4z"/>
	</g>
	<g>
		<path class="st1" d="M73.1,10.3c0.6-0.8,1.7-1.8,3.2-1.1c1.3,0.7,1.9,2.2,2.3,4.1c6.4-5.2,11.5-8.7,17.1-9.1
			c0.7,0.1,0.9,0.1,0.4,0.5C89.6,7.7,83,12.8,77.2,19.9c-0.3,0.2-0.5,0.1-0.7-0.1c-0.5-2.4-0.8-4.7-1.6-7.2
			C74.7,11.5,74.2,10.5,73.1,10.3z"/>
	</g>
</g>
<g id="Слой_3">
	<g>
		<path class="st2" d="M133.4,30.1c0-1.2,0.1-2.3,0.4-3.4c0.3-1.1,0.7-2.2,1.2-3.2s1.1-1.9,1.8-2.8c0.7-0.8,1.4-1.6,2.3-2.2
			c0.8-0.6,1.7-1.1,2.6-1.4c0.9-0.3,1.9-0.5,2.9-0.5c1.1,0,2,0.2,2.7,0.7c0.6,0.5,1,1.2,1,2c0,0.3,0,0.7-0.1,1
			c-0.1,0.3-0.2,0.7-0.4,1c-0.2,0.3-0.4,0.7-0.6,1c-0.2,0.3-0.5,0.6-0.8,0.8c-0.4-0.1-0.8-0.3-1.1-0.6c-0.3-0.3-0.5-0.7-0.6-1.1
			c0.6-0.5,1-1,1.4-1.5c0.3-0.5,0.5-1,0.5-1.4c0-0.7-0.5-1.1-1.4-1.1c-0.4,0-0.8,0.1-1.2,0.2c-0.4,0.2-0.8,0.4-1.2,0.7
			c-0.4,0.3-0.8,0.6-1.2,1c-0.4,0.4-0.8,0.8-1.1,1.3c-2.3,3.3-3.5,6.7-3.5,10.2c0,1.2,0.2,2.2,0.6,3c0.4,0.8,0.9,1.2,1.5,1.3
			c0.7-0.2,1.6-0.6,2.7-1.4s2.3-1.7,3.6-2.9c0.2,0.2,0.3,0.3,0.3,0.5c-0.5,0.6-1,1.2-1.5,1.8c-0.5,0.6-1,1.1-1.5,1.6s-1,0.9-1.5,1.3
			c-0.5,0.4-0.9,0.6-1.4,0.8c-2.1,0-3.6-0.6-4.7-1.7C133.9,34,133.4,32.3,133.4,30.1z"/>
		<path class="st2" d="M148.6,34.5c0-0.6,0.1-1.3,0.2-2.1c0.1-0.8,0.3-1.6,0.5-2.5s0.5-1.8,0.8-2.8c0.3-1,0.7-2,1-2.9
			c0.3-0.9,0.7-1.8,1.2-2.7c0.4-0.9,0.9-1.8,1.4-2.6c0.5-0.9,1.1-1.7,1.6-2.5c0.6-0.8,1.1-1.5,1.7-2.1c0.3,0,0.6,0,0.9,0.1
			c0.3,0.1,0.6,0.2,0.9,0.3c0.3,0.1,0.6,0.2,0.8,0.4c0.2,0.1,0.4,0.3,0.6,0.5c-1.3,1.3-2.4,2.6-3.4,3.9c-1,1.3-1.8,2.5-2.4,3.7
			c-0.3,0.6-0.6,1.2-0.9,1.8c-0.3,0.6-0.5,1.1-0.7,1.6c-0.2,0.5-0.4,1.1-0.6,1.6c-0.2,0.5-0.3,1.1-0.5,1.7c3.2-4.1,5.6-6.1,7.1-6.1
			c0.4,0,0.9,0.1,1.4,0.4s0.9,0.7,1.3,1.1c-0.5,0.6-1,1.3-1.6,2c-0.6,0.8-1.1,1.6-1.5,2.4c-0.5,0.8-0.8,1.6-1.1,2.3
			c-0.3,0.7-0.4,1.2-0.4,1.5c0,0.2,0,0.3,0.1,0.3c0,0.1,0.2,0.1,0.3,0.1c0.3,0,0.5,0,0.6-0.1c0.1-0.1,0.2-0.1,0.3-0.1
			c0.1,0.1,0.1,0.2,0.1,0.3c0,0,0,0.1,0,0.1c0,0.1-0.1,0.2-0.3,0.3c-0.2,0.1-0.4,0.3-0.7,0.4s-0.5,0.2-0.8,0.3s-0.5,0.1-0.6,0.1
			c-0.2,0-0.3,0-0.5-0.1s-0.3-0.2-0.4-0.4s-0.2-0.3-0.3-0.5c-0.1-0.2-0.1-0.4-0.1-0.6c0-0.3,0.1-0.6,0.2-1.1
			c0.1-0.5,0.3-1.1,0.6-1.7c0.3-0.7,0.5-1.4,0.9-2.2c0.4-0.8,0.7-1.6,1.1-2.4c0-0.1,0-0.1-0.1-0.1c0,0-0.2,0.1-0.4,0.2
			c-0.2,0.1-0.4,0.3-0.6,0.4c-0.6,0.5-1.2,1-1.8,1.7c-0.6,0.7-1.2,1.4-1.8,2.2c-0.6,0.8-1.1,1.6-1.6,2.5s-0.9,1.8-1.3,2.6
			c0,0.1-0.1,0.2-0.2,0.3c-0.1,0.1-0.2,0.2-0.3,0.2c0,0-0.1-0.1-0.2-0.2c-0.1-0.1-0.2-0.3-0.3-0.4c-0.1-0.2-0.1-0.4-0.2-0.5
			C148.6,34.8,148.6,34.7,148.6,34.5z"/>
		<path class="st2" d="M171.7,24.6c-0.1,1-0.3,1.9-0.5,2.7c-0.3,0.7-0.7,1.4-1.3,2c-0.6,0.6-1.2,1.1-2,1.5c-0.8,0.5-1.7,0.9-2.8,1.3
			c0,0.1,0,0.2,0,0.3c0,0.1,0,0.2,0,0.3c0,0.2,0,0.4,0.1,0.7c0,0.2,0.1,0.5,0.2,0.6c0.1,0.2,0.2,0.4,0.4,0.5s0.3,0.2,0.6,0.2
			c0.4,0,0.9-0.1,1.3-0.3c0.4-0.2,0.8-0.4,1.2-0.7c0.4-0.3,0.8-0.6,1.1-1c0.3-0.3,0.6-0.7,0.9-0.9c0.2,0.2,0.3,0.3,0.4,0.4
			c-0.8,1-1.6,1.8-2.5,2.5s-1.7,1.1-2.5,1.3c-1.2-0.1-2-0.6-2.7-1.3c-0.6-0.7-1-1.6-1-2.6c0-0.7,0.1-1.4,0.3-2.1
			c0.2-0.7,0.5-1.4,0.8-2c0.3-0.7,0.7-1.3,1.2-1.9c0.5-0.6,1-1.1,1.5-1.5c0.5-0.4,1.1-0.8,1.6-1c0.6-0.3,1.1-0.4,1.7-0.4
			C170.3,23.3,171,23.7,171.7,24.6z M170,25.4c-0.4,0.1-0.9,0.3-1.4,0.5c-0.5,0.3-0.9,0.7-1.4,1.2c-0.4,0.5-0.8,1.1-1.2,1.8
			s-0.6,1.4-0.8,2.1c1.3-0.7,2.4-1.5,3.3-2.5C169.4,27.6,169.9,26.6,170,25.4z"/>
		<path class="st2" d="M174.3,30.5c0-1,0.2-1.9,0.6-2.8c0.4-0.9,0.9-1.7,1.5-2.4c0.6-0.7,1.4-1.3,2.2-1.7c0.8-0.4,1.7-0.6,2.6-0.6
			c0.9,0,1.5,0.2,2,0.6c0.5,0.4,0.7,1.1,0.7,1.9c0,0.4-0.1,0.8-0.2,1.1c-0.1,0.4-0.3,0.7-0.4,1c-0.2,0.3-0.4,0.5-0.6,0.7
			c-0.2,0.2-0.5,0.3-0.7,0.3c-0.2,0-0.4-0.1-0.6-0.2c-0.2-0.1-0.4-0.3-0.5-0.5c1.1-1,1.7-1.9,1.7-2.8c0-0.5-0.2-0.7-0.6-0.7
			c-0.3,0-0.8,0.2-1.3,0.5c-0.5,0.3-1,0.7-1.5,1.3c-0.7,0.8-1.3,1.7-1.6,2.7c-0.4,1-0.6,2-0.6,3.1c0,1.3,0.3,2.2,0.9,2.4
			c0.3,0,0.5-0.1,0.9-0.2c0.3-0.1,0.7-0.3,1.1-0.5c0.4-0.2,0.8-0.4,1.2-0.7c0.4-0.3,0.8-0.5,1.2-0.8c0.1,0,0.1,0.1,0.2,0.2
			c0,0.1,0.1,0.2,0.1,0.3c-0.3,0.4-0.6,0.7-1,1c-0.4,0.3-0.8,0.6-1.1,0.9c-0.4,0.3-0.8,0.5-1.2,0.7s-0.7,0.3-1,0.4
			c-0.5-0.1-1.1-0.2-1.5-0.5s-0.9-0.7-1.3-1.1s-0.6-1-0.8-1.6C174.4,31.8,174.3,31.2,174.3,30.5z"/>
		<path class="st2" d="M185.9,32.6c0-0.6,0.2-1.4,0.5-2.5c0.3-1.1,0.7-2.2,1.2-3.5c0.5-1.3,1.1-2.6,1.7-3.9c0.6-1.4,1.3-2.6,1.9-3.8
			c0.6-1.2,1.3-2.2,1.8-3c0.6-0.9,1.1-1.4,1.5-1.7c0.2,0,0.5,0.1,0.8,0.3c0.3,0.2,0.5,0.4,0.8,0.7c0.2,0.3,0.4,0.5,0.6,0.8
			c0.2,0.3,0.2,0.5,0.2,0.8c-0.8,0.6-1.5,1.4-2.3,2.3c-0.8,0.9-1.5,2-2.2,3.1c-0.7,1.1-1.3,2.3-1.9,3.6c-0.6,1.3-1.1,2.5-1.5,3.7
			c0.5-0.9,1.1-1.8,1.7-2.5c0.6-0.8,1.2-1.4,1.8-1.9c0.6-0.5,1.2-0.9,1.7-1.2c0.6-0.3,1.1-0.4,1.6-0.4c0.7,0.5,1.1,1.2,1.1,2.1
			c0,0.5-0.1,1.1-0.3,1.6s-0.5,1-0.9,1.5s-0.8,0.8-1.2,1.2c-0.5,0.3-0.9,0.5-1.4,0.6c0.2,0.6,0.4,1.2,0.6,1.8
			c0.3,0.6,0.6,1.2,0.9,1.8c0.4,0.6,0.8,1.1,1.2,1.6c0.5,0.5,1,0.9,1.6,1.2c-0.1,0.2-0.2,0.3-0.4,0.5c-0.2,0.2-0.4,0.3-0.6,0.4
			s-0.5,0.2-0.8,0.3c-0.3,0.1-0.5,0.1-0.8,0.1c-0.5,0-0.9-0.2-1.3-0.7c-0.4-0.4-0.7-1.1-1.1-1.9c-0.3-0.7-0.5-1.5-0.7-2.5
			c-0.2-1-0.4-1.9-0.6-3c0.2-0.1,0.5-0.4,0.9-0.7s0.7-0.6,1.1-1c1.5-1.4,2.2-2.6,2.2-3.7c0-0.1-0.1-0.2-0.3-0.2
			c-0.3,0-0.7,0.2-1.2,0.5s-0.9,0.7-1.4,1.3c-0.5,0.5-1,1.2-1.5,1.9c-0.5,0.7-1,1.5-1.5,2.3c-0.2,0.3-0.4,0.7-0.5,1.2
			c-0.2,0.4-0.3,0.9-0.4,1.3c-0.1,0.5-0.2,0.9-0.3,1.4c-0.1,0.5-0.1,0.9-0.1,1.3c0,0.2,0,0.4,0.1,0.6c-0.5-0.1-0.8-0.2-1-0.4
			c-0.1-0.2-0.2-0.4-0.3-0.5c-0.1-0.1-0.2-0.2-0.3-0.3c-0.1-0.1-0.3-0.4-0.4-0.8C186,33.6,185.9,33.1,185.9,32.6z"/>
		<path class="st2" d="M204.4,25c-0.5-0.3-0.8-0.4-1.1-0.5c-0.4,0.2-0.7,0.5-1,0.8c-0.3,0.4-0.5,0.8-0.7,1.2
			c-0.2,0.4-0.3,0.8-0.5,1.2c-0.1,0.4-0.2,0.6-0.2,0.8c-0.2,0.8-0.3,1.4-0.4,1.9c-0.1,0.5-0.2,1-0.3,1.4c-0.1,0.4-0.1,0.7-0.1,0.9
			c0,0.2,0,0.4,0,0.6c0,0.4,0.1,0.7,0.3,0.9c0.2,0.3,0.4,0.5,0.6,0.7c0.2,0.2,0.4,0.3,0.6,0.4c0.2,0.1,0.3,0.1,0.4,0.1
			c0.1,0,0.1-0.1,0.1-0.2c0-0.1,0-0.3,0-0.6c0-0.4,0.1-0.8,0.3-1.3c0.2-0.5,0.3-1,0.5-1.4c0.2-0.5,0.4-1.1,0.6-1.6
			c0.2-0.5,0.4-1,0.6-1.5c0.2-0.5,0.4-0.9,0.7-1.4c0.3-0.4,0.6-0.9,1-1.3C205.3,25.7,204.9,25.3,204.4,25z"/>
		<path class="st2" d="M211.2,22.8c0.4,0.1,0.8,0.4,1.2,0.9c0.4,0.5,0.7,1,0.8,1.5c-0.2,0.5-0.5,1-0.8,1.6c-0.4,0.6-0.8,1.3-1.2,1.9
			c-0.4,0.7-0.7,1.3-1,1.9c-0.3,0.6-0.5,1.1-0.5,1.5c0.3-0.3,0.6-0.6,0.9-1c0.3-0.4,0.6-0.8,1-1.1c0.3-0.4,0.6-0.7,0.9-1
			c0.3-0.3,0.5-0.5,0.6-0.7c0.3-0.3,0.7-0.7,1.1-1.2c0.4-0.4,0.9-0.9,1.4-1.3s1-0.7,1.4-1c0.5-0.3,0.9-0.4,1.3-0.4
			c0.4,0,0.8,0.1,1.1,0.4c0.3,0.3,0.5,0.6,0.7,0.9c0,0-0.1,0.1-0.2,0.1s-0.3,0.2-0.5,0.5c-0.2,0.3-0.5,0.7-0.8,1.2
			c-0.3,0.5-0.6,1.1-0.9,1.7s-0.5,1.2-0.7,1.9c-0.2,0.6-0.3,1.2-0.3,1.7c0,0.4,0.1,0.7,0.2,0.8c0.1,0.1,0.3,0.2,0.5,0.2
			c0.2,0,0.4,0,0.6-0.1c0.2-0.1,0.4-0.1,0.5-0.1c0.1,0,0.1,0.1,0.2,0.2c0,0.1,0.1,0.2,0.1,0.3c-0.1,0.1-0.3,0.2-0.5,0.4
			s-0.4,0.2-0.6,0.3c-0.2,0.1-0.4,0.2-0.6,0.3c-0.2,0.1-0.4,0.1-0.5,0.1c-0.5,0-0.9-0.1-1.2-0.2c-0.3-0.1-0.5-0.3-0.7-0.6
			c-0.2-0.2-0.3-0.5-0.4-0.8c-0.1-0.3-0.1-0.7-0.1-1c0-0.2,0-0.4,0-0.7c0-0.3,0.1-0.5,0.2-0.9c0.1-0.3,0.2-0.8,0.4-1.2
			s0.4-1,0.7-1.7c0,0-0.3,0.1-0.7,0.4c-0.4,0.2-0.9,0.6-1.4,1.1c-0.8,0.8-1.5,1.5-2.1,2.2c-0.6,0.7-1.3,1.6-1.9,2.5
			c-0.4,0.5-0.7,1-1,1.3c-0.3,0.4-0.5,0.6-0.7,0.7c-0.4-0.2-0.6-0.5-0.8-0.8c-0.2-0.4-0.3-0.7-0.4-1.1c0-0.3,0-0.7,0.1-1.2
			c0.1-0.5,0.2-1,0.4-1.6c0.2-0.6,0.4-1.2,0.6-1.9c0.2-0.6,0.5-1.3,0.8-2c0.6-1.5,1.2-2.6,1.7-3.4C210.8,23.3,211.1,22.9,211.2,22.8
			z"/>
		<path class="st2" d="M216.9,42.4c0-0.1,0-0.2,0.1-0.3c0.1-0.1,0.1-0.2,0.2-0.3c0.2,0.2,0.4,0.3,0.5,0.4c0.1,0.1,0.3,0.2,0.4,0.3
			c0.1,0.1,0.3,0.1,0.4,0.1c0.1,0,0.3,0,0.5,0c0.9,0,1.7-0.2,2.5-0.7c0.8-0.5,1.5-1.1,2.2-2c0.7-0.9,1.3-1.9,1.9-3.2
			s1.1-2.7,1.5-4.3c-0.2,0.2-0.4,0.4-0.7,0.7c-0.3,0.2-0.6,0.5-0.9,0.7c-0.3,0.2-0.6,0.4-0.9,0.6c-0.3,0.2-0.6,0.3-0.8,0.4
			c-0.3,0-0.5-0.2-0.8-0.4c-0.2-0.2-0.5-0.4-0.6-0.7c-0.2-0.3-0.3-0.6-0.4-1c-0.1-0.4-0.2-0.7-0.2-1.1c0-0.7,0.1-1.3,0.4-2
			c0.2-0.7,0.6-1.4,1-2c0.4-0.7,0.9-1.3,1.4-1.9c0.5-0.6,1.1-1.1,1.7-1.5c0.6-0.4,1.2-0.8,1.8-1s1.2-0.4,1.8-0.4
			c0.6,0,1,0.1,1.3,0.4c0.3,0.2,0.5,0.7,0.6,1.2c-0.2-0.1-0.4-0.1-0.7-0.1c-0.4,0-0.9,0.2-1.4,0.5c-0.5,0.3-1.1,0.7-1.6,1.2
			s-1.1,1.1-1.6,1.8c-0.5,0.7-1,1.3-1.4,2c-0.4,0.7-0.7,1.4-1,2c-0.3,0.7-0.4,1.2-0.4,1.7c0,0.1,0,0.2,0,0.2c0,0,0,0,0.1,0
			c0.1,0,0.4-0.1,0.6-0.3c0.3-0.2,0.5-0.4,0.9-0.6c0.3-0.3,0.7-0.6,1-0.9c0.4-0.3,0.7-0.7,1-1c0.7-0.8,1.4-1.7,2-2.7s1.1-2,1.4-2.9
			c0.5,0,0.9,0.1,1.2,0.2c0.4,0.1,0.6,0.2,0.7,0.4c-0.6,1.3-1,2.4-1.4,3.3c-0.3,0.9-0.6,1.7-0.9,2.4c-0.5,1.2-0.9,2.3-1.3,3.3
			c-0.4,1-0.8,1.9-1.2,2.8c-0.4,0.8-0.8,1.6-1.3,2.4c-0.5,0.7-1,1.4-1.6,2.1c-0.3,0.3-0.6,0.6-1,0.8c-0.4,0.2-0.7,0.4-1.1,0.6
			s-0.7,0.3-1.1,0.4c-0.4,0.1-0.7,0.1-1,0.1c-0.4,0-0.8,0-1.2-0.1c-0.4-0.1-0.8-0.2-1.2-0.4c-0.4-0.2-0.7-0.3-0.9-0.6
			S217,42.6,216.9,42.4z"/>
	</g>
	<g>
		<path class="st1" d="M201.1,11.3c0.6-0.8,1.7-1.8,3.2-1.1c1.3,0.7,1.9,2.2,2.3,4.1c6.4-5.2,11.5-8.7,17.1-9.1
			c0.7,0.1,0.9,0.1,0.4,0.5c-6.5,3.1-13.1,8.2-18.8,15.3c-0.3,0.2-0.5,0.1-0.7-0.1c-0.5-2.4-0.8-4.7-1.6-7.2
			C202.7,12.5,202.2,11.5,201.1,11.3z"/>
	</g>
</g>
<g id="Слой_2">
</g>
</svg>
